<svg xmlns="http://www.w3.org/2000/svg" viewBox="-1 -1 66 91">
	<path d="M 37.5 20.5 Q 39.5 20.5 39.5 22.5 L 39.5 48.5 Q 39.5 50.5 37.5 50.5 L 26.5 50.5 Q 24.5 50.5 24.5 48.5 L 24.5 22.5 Q 24.5 20.5 26.5 20.5 L 37.5 20.5" fill="white" stroke="black" stroke-width="0.5"/>
	<path d="M 29 23.5 A 2 2 90 0 0 29 27.5 A 2 2 90 0 0 29 23.5 M 35 23.5 A 2 2 90 0 0 35 27.5 A 2 2 90 0 0 35 23.5 M 29 29.5 A 2 2 90 0 0 29 33.5 A 2 2 90 0 0 29 29.5 M 35 29.5 A 2 2 90 0 0 35 33.5 A 2 2 90 0 0 35 29.5 M 29 37.5 A 2 2 90 0 0 29 41.5 A 2 2 90 0 0 29 37.5 M 35 47.5 A 2 2 90 0 0 35 43.5 A 2 2 90 0 0 35 47.5" fill="#000000"/>
	<path d="M 37 35.5 L 27 35.5" fill="#000000" stroke="black" stroke-width="0.5"/>
</svg>