<svg xmlns="http://www.w3.org/2000/svg" viewBox="-3.85 -7.6 7.7 15.2">
	<path d="M 2.75 -7.5 Q 3.75 -7.5 3.75 -6.5 L 3.75 6.5 Q 3.75 7.5 2.75 7.5 L -2.75 7.5 Q -3.75 7.5 -3.75 6.5 L -3.75 -6.5 Q -3.75 -7.5 -2.75 -7.5 L 2.75 -7.5 " fill="white"/>
	<path d="M -1.5 -6 A 1 1 0 0 0 -1.5 -4 A 1 1 0 0 0 -1.5 -6 M 1.5 -6 A 1 1 0 0 0 1.5 -4 A 1 1 0 0 0 1.5 -6 M -1.5 -3 A 1 1 0 0 0 -1.5 -1 A 1 1 0 0 0 -1.5 -3 M 1.5 -3 A 1 1 0 0 0 1.5 -1 A 1 1 0 0 0 1.5 -3 M -1.5 1 A 1 1 0 0 0 -1.5 3 A 1 1 0 0 0 -1.5 1 M 1.5 6 A 1 1 0 0 0 1.5 4 A 1 1 0 0 0 1.5 6" fill="#000000"/>
	<path d="M 2.5 -0.25 L -2.5 -0.25 L -2.5 0.25 L 2.5 0.25 L 2.5 -0.25" fill="#000000"/>
</svg>