<svg xmlns="http://www.w3.org/2000/svg" viewBox="0 0 308 176">
	<!-- background          --><path d="M 0 0 L 0 176 L 308 176 L 308 0 L 0 0" fill="#e6e6e6"/>
	<!-- blue pattern        --><path d="M 286 0 L 275 11 L 264 11 L 275 0 L 286 0 M 242 0 L 231 11 L 220 11 L 231 0 L 242 0 M 198 0 L 187 11 L 176 11 L 187 0 L 198 0 M 154 0 L 143 11 L 132 11 L 143 0 L 154 0 M 110 0 L 99 11 L 88 11 L 99 0 L 110 0 M 66 0 L 55 11 L 44 11 L 55 0 L 66 0 M 22 0 L 11 11 L 11 22 L 0 11 L 0 0 L 22 0 M 0 44 L 11 55 L 11 66 L 0 55 L 0 44 M 0 88 L 11 99 L 11 110 L 0 99 L 0 88 M 0 132 L 11 143 L 11 154 L 0 143 L 0 132 M 22 176 L 33 165 L 44 165 L 33 176 L 22 176 M 66 176 L 77 165 L 88 165 L 77 176 L 66 176 M 110 176 L 121 165 L 132 165 L 121 176 L 110 176 M 154 176 L 165 165 L 176 165 L 165 176 L 154 176 M 198 176 L 209 165 L 220 165 L 209 176 L 198 176 M 242 176 L 253 165 L 264 165 L 253 176 L 242 176 M 286 176 L 297 165 L 297 154 L 308 165 L 308 176 L 286 176 M 308 132 L 297 121 L 297 110 L 308 121 L 308 132 M 308 88 L 297 77 L 297 66 L 308 77 L 308 88 M 308 44 L 297 33 L 297 22 L 308 33 L 308 44" fill="#4545f8"/>
	<!-- red pattern         --><path d="M 308 0 L 297 0 L 286 11 L 297 11 L 308 22 L 308 0 M 264 0 L 253 11 L 242 11 L 253 0 L 264 0 M 220 0 L 209 11 L 198 11 L 209 0 L 220 0 M 176 0 L 165 11 L 154 11 L 165 0 L 176 0 M 132 0 L 121 11 L 110 11 L 121 0 L 132 0 M 88 0 L 77 11 L 66 11 L 77 0 L 88 0 M 44 0 L 33 11 L 22 11 L 33 0 L 44 0 M 0 22 L 11 33 L 11 44 L 0 33 L 0 22 M 0 66 L 11 77 L 11 88 L 0 77 L 0 66 M 0 110 L 11 121 L 11 132 L 0 121 L 0 110 M 0 154 L 11 165 L 22 165 L 11 176 L 0 176 L 0 154 M 44 176 L 55 165 L 66 165 L 55 176 L 44 176 M 88 176 L 99 165 L 110 165 L 99 176 L 88 176 M 132 176 L 143 165 L 154 165 L 143 176 L 132 176 M 176 176 L 187 165 L 198 165 L 187 176 L 176 176 M 220 176 L 231 165 L 242 165 L 231 176 L 220 176 M 264 176 L 275 165 L 286 165 L 275 176 L 264 176 M 308 154 L 297 143 L 297 132 L 308 143 L 308 154 M 308 110 L 297 99 L 297 88 L 308 99 L 308 110 M 308 66 L 297 55 L 297 44 L 308 55 L 308 66 M 308 22" fill="#f84545"/>
	<!-- middle line         --><path d="M 157.5 154 L 154.5 154 L 154.5 22 L 157.5 22 L 157.5 154" fill="#9a9a9a"/>
	<!-- writing line        --><path d="M 180 137 L 275 137 L 275 134 L 180 134 L 180 137 M 180 123 L 275 123 L 275 120 L 180 120 L 180 123 M 180 109 L 275 109 L 275 106 L 180 106 L 180 109 M 180 95 L 275 95 L 275 92 L 180 92 L 180 95" fill="#9a9a9a"/>
	<!-- placeholder stamp   --><path d="M 286 22 L 253 22 L 253 55 L 286 55 L 286 22 M 225.5 22 A 1 1 0 0 0 225.5 55 A 1 1 0 0 0 225.5 22" fill="#9a9a9a"/>
	<!-- placeholder curve   --><path d="M 217 30 Q 232 38 247 30 Q 262 22 277 30 L 277 32 Q 262 24 247 32 Q 232 40 217 32 L 217 30 M 217 38 Q 232 46 247 38 Q 262 30 277 38 L 277 40 Q 262 32 247 40 Q 232 48 217 40 L 217 38 M 217 46 Q 232 54 247 46 Q 262 38 277 46 L 277 48 Q 262 40 247 48 Q 232 56 217 48 L 217 46" fill="#666666"/>
</svg>