<!--<svg xmlns="http://www.w3.org/2000/svg" viewBox="-1 -1 22 22" stroke-width="0.2" stroke="black" fill="transparent">-->
<!--	<path d="M 0 0 L 20 0 L 20 20 L 0 20 L 0 0" fill="transparent" stroke="black"/>-->
<!--	<path d="M 1.5 1.5 L 7 1.5 L 7 4 L 4 4 L 4 16 L 7 16 L 7 18.5 L 1.5 18.5 L 1.5 1.5"/>-->
<!--	<path d="M 18.5 1.5 L 13 1.5 L 13 4 L 16 4 L 16 16 L 13 16 L 13 18.5 L 18.5 18.5 L 18.5 1.5"/>-->
<!--	<path d="M 5.5 5.5 L 5.5 8 L 8.75 8 L 8.75 16 L 11.25 16 L 11.25 8 L 14.5 8 L 14.5 5.5 L 5.5 5.5"/>-->
<!--</svg>-->

<svg xmlns="http://www.w3.org/2000/svg" viewBox="0 0 48 48" stroke="#000000" stroke-width="0.75" fill="none" style="opacity: 17%">
	<path d="M 29.5 41.5 L 29.5 44 L 32.75 44 L 32.75 52 L 35.25 52 L 35.25 44 L 38.5 44 L 38.5 41.5 L 29.5 41.5 M 42.5 37.5 L 37 37.5 L 37 40 L 40 40 L 40 52 L 37 52 L 37 54.5 L 42.5 54.5 L 42.5 37.5 M 25.5 37.5 L 31 37.5 L 31 40 L 28 40 L 28 52 L 31 52 L 31 54.5 L 25.5 54.5 L 25.5 37.5 M 24 36 L 44 36 L 44 56 L 24 56 L 24 36 M 29.5 -6.5 L 29.5 -4 L 32.75 -4 L 32.75 4 L 35.25 4 L 35.25 -4 L 38.5 -4 L 38.5 -6.5 L 29.5 -6.5 M 42.5 -10.5 L 37 -10.5 L 37 -8 L 40 -8 L 40 4 L 37 4 L 37 6.5 L 42.5 6.5 L 42.5 -10.5 M 25.5 -10.5 L 31 -10.5 L 31 -8 L 28 -8 L 28 4 L 31 4 L 31 6.5 L 25.5 6.5 L 25.5 -10.5 M 24 -12 L 44 -12 L 44 8 L 24 8 L 24 -12 M 29.5 17.5 L 29.5 20 L 32.75 20 L 32.75 28 L 35.25 28 L 35.25 20 L 38.5 20 L 38.5 17.5 L 29.5 17.5 M 42.5 13.5 L 37 13.5 L 37 16 L 40 16 L 40 28 L 37 28 L 37 30.5 L 42.5 30.5 L 42.5 13.5 M 25.5 13.5 L 31 13.5 L 31 16 L 28 16 L 28 28 L 31 28 L 31 30.5 L 25.5 30.5 L 25.5 13.5 M 24 12 L 44 12 L 44 32 L 24 32 L 24 12 M 5.5 5.5 L 5.5 8 L 8.75 8 L 8.75 16 L 11.25 16 L 11.25 8 L 14.5 8 L 14.5 5.5 L 5.5 5.5 M 18.5 1.5 L 13 1.5 L 13 4 L 16 4 L 16 16 L 13 16 L 13 18.5 L 18.5 18.5 L 18.5 1.5 M 1.5 1.5 L 7 1.5 L 7 4 L 4 4 L 4 16 L 7 16 L 7 18.5 L 1.5 18.5 L 1.5 1.5 M 0 0 L 20 0 L 20 20 L 0 20 L 0 0 M 5.5 29.5 L 5.5 32 L 8.75 32 L 8.75 40 L 11.25 40 L 11.25 32 L 14.5 32 L 14.5 29.5 L 5.5 29.5 M 18.5 25.5 L 13 25.5 L 13 28 L 16 28 L 16 40 L 13 40 L 13 42.5 L 18.5 42.5 L 18.5 25.5 M 1.5 25.5 L 7 25.5 L 7 28 L 4 28 L 4 40 L 7 40 L 7 42.5 L 1.5 42.5 L 1.5 25.5 M 0 24 L 20 24 L 20 44 L 0 44 L 0 24"/>
</svg>