<?xml version="1.0" encoding="UTF-8"?>
<svg version="1.1" xmlns="http://www.w3.org/2000/svg" width="140" height="32" >
<path d="M1 0 139 0 140 1 140 11 138 13 138 19 140 21 140 31 139 32 1 32 0 31 0 21 2 19 2 13 0 11 0 1 1 0" fill="#cda17f"/>
<path d="M11 5 10 6 10 26V26L11 27H31L32 26V6L31 5Z" fill="#dbc69f"/>
<path d="M2 2V7H3V3H7V2H2M4 4V5H5V4H4" fill="#dbc69f"/>
<path d="M2 2V7H3V3H7V2H2M4 4V5H5V4H4M138 2V7H137V3H133V2H138M136 4V5H135V4H136M2 30V25H3V29H7V30H2M4 28V27H5V28H4M138 30V25H137V29H133V30H138M136 28V27H135V28H136" fill="#dbc69f"/>
</svg>
