<?xml version="1.0" encoding="UTF-8"?>
<svg version="1.1" xmlns="http://www.w3.org/2000/svg" width="68" height="270">
<path d="M39 0 62 0 68 6 68 266 64 270 39 270 31 262 30 197 26 193 25 185 12 172 12 161 6 161 0 156 0 117 6 112 12 112 12 101 25 88 26 80 30 76 31 8ZM12 129 12 145 13 145 13 129Z" fill="#DAC59E"/>
<path d="M39 0 62 0 68 6 68 21 64 17 64 9 61 6 40 6 37 9 37 261 40 264 63 264 68 259 68 266 64 270 39 270 31 262 30 197 25 192 25 185 12 172 12 161 6 161 0 156 0 117 6 112 12 112 12 101 25 88 25 81 30 76 31 8ZM12 129 12 145 13 145 13 129Z" fill=""/>
<path d="M39 6 42 6 39 9 39 238 64 238 64 17 68 21 68 261 64 265 40 265 36 261 36 9Z" fill="#CDA17F"/>
<path d="M32 80 32 80 32 192 30 190 30 185 16 171 16 156 7 156 5 154 5 119 7 117 16 117 16 102 30 88 30 82ZM12 129 12 145 13 145 13 129Z" fill="#924F44"/>
<path d="M31 80 32 79 32 192 29 189 29 184 16 171 16 156 7 156 5 154 5 119 7 117 16 117 16 102 19 99 19 169 23 173 23 95 25 93 25 175 29 179 30 81ZM12 129 12 145 13 145 13 129Z" fill="#6C4246"/>
<path d="M40 242 64 242 64 247 44 247 43 248 43 257 44 258 54 258 55 257 55 256 54 255 48 255 47 254 47 251 48 250 59 250 60 251 60 262 59 263 40 263 38 261 38 244Z" fill="#DBC69F"/>
<path d="M7 117 16 117 16 122 10 122 9 123 9 147 10 148 16 148 16 152 7 152 5 150 5 119Z" fill="#975144"/>
<path d="M10 126 16 126 16 148 10 148 9 147 9 127ZM12 129 12 145 13 145 13 129Z" fill="#000000"/>
</svg>
