<?xml version="1.0" encoding="UTF-8"?>
<svg version="1.1" xmlns="http://www.w3.org/2000/svg" width="384" height="270" shape-rendering="crispEdges">
<path d="M0 20 384 20 384 258 0 258Z" fill="#DAC59E"/>
<path d="M0 6 2 8 2 16 36 16 38 18 38 16 125 16 126 17 126 16 192 16 192 17 193 16 323 16 323 19 326 16 367 16 367 17 368 16 382 16 382 8 384 6 384 21 369 21 366 24 366 21 328 21 320 29 320 21 194 21 191 24 191 21 127 21 127 24 124 21 41 21 41 26 36 21 0 21Z" fill="#000000"/>
<path d="M199 256 203 260 312 260 312 256 316 260 382 260 384 258 384 265 314 265 313 264 313 265 201 265 200 264 200 265 152 265 152 264 151 265 40 265 40 263 38 265 0 265 0 258 2 260 38 260 41 257 41 260 150 260 153 257 153 260 199 260Z" fill="#000000"/>
<path d="M0 21 5 21 3 23 3 26 8 26 8 27 3 27 3 28 5 28 5 29 3 29 3 30 6 30 6 31 3 31 3 202 7 202 7 203 3 203 3 204 6 204 6 205 3 205 3 206 5 206 5 207 3 207 3 247 5 247 5 248 3 248 3 249 6 249 6 250 3 250 3 251 5 251 5 252 3 252 3 254 5 256 6 256 6 253 7 253 7 256 8 256 8 254 9 254 9 256 102 256 107 251 107 256 170 256 170 251 175 256 199 256 199 260 153 260 153 257 150 260 41 260 41 257 38 260 2 260 0 258Z" fill="#CDA17F"/>
<path d="M379 21 384 21 384 258 382 260 316 260 312 256 375 256 375 252 376 252 376 256 377 256 377 254 378 254 378 256 379 256 379 254 381 254 381 253 379 253 379 252 381 252 381 251 377 251 377 250 381 250 381 193 378 193 378 192 381 192 381 191 377 191 377 190 381 190 381 176 378 176 378 175 381 175 381 29 380 29 380 28 381 28 381 27 380 27 380 26 381 26 381 25 380 25 380 24 381 24 381 23Z" fill="#CDA17F"/>
<path d="M283 251 288 256 312 256 312 260 203 260 199 256 283 256Z" fill="#CDA17F"/>
</svg>
